<?xml version="1.0" encoding="UTF-8" standalone="no"?>
<!-- Created with Inkscape (http://www.inkscape.org/) -->

<svg
   xmlns:dc="http://purl.org/dc/elements/1.1/"
   xmlns:cc="http://creativecommons.org/ns#"
   xmlns:rdf="http://www.w3.org/1999/02/22-rdf-syntax-ns#"
   xmlns:svg="http://www.w3.org/2000/svg"
   xmlns="http://www.w3.org/2000/svg"
   version="1.1"
   width="27.5"
   height="27.5"
   id="svg3003"
   xml:space="preserve"><metadata
     id="metadata3009"><rdf:RDF><cc:Work
         rdf:about=""><dc:format>image/svg+xml</dc:format><dc:type
           rdf:resource="http://purl.org/dc/dcmitype/StillImage" /><dc:title></dc:title></cc:Work></rdf:RDF></metadata><defs
     id="defs3007"><clipPath
       id="clipPath3017"><path
         d="M 0,22 22,22 22,0 0,0 0,22 z"
         id="path3019" /></clipPath></defs><g
     transform="matrix(1.25,0,0,-1.25,0,27.5)"
     id="g3011"><g
       id="g3013"><g
         clip-path="url(#clipPath3017)"
         id="g3015"><g
           transform="translate(3.5762,0.9985)"
           id="g3021"><path
             d="m 0,0 14.848,0 c 0.011,0.001 0.023,0.003 0.035,0.003 0.764,0.054 2.542,0.418 2.542,2.652 l 0,14.692 c 0,2.234 -1.778,2.598 -2.542,2.652 -0.014,0.001 -0.028,0.002 -0.042,0.004 l -14.835,0 C -0.007,20.001 -0.021,20 -0.035,19.999 -0.8,19.945 -2.578,19.581 -2.578,17.347 l 0,-14.692 C -2.578,0.421 -0.8,0.057 -0.035,0.003 -0.023,0.003 -0.012,0.001 0,0 m 14.917,-0.997 -14.987,0 c -0.037,0 -0.073,0.004 -0.108,0.012 -1.656,0.14 -3.397,1.166 -3.397,3.64 l 0,14.692 c 0,2.472 1.738,3.498 3.392,3.64 C -0.146,20.996 -0.108,21 -0.07,21 l 14.987,0 c 0.04,0 0.079,-0.005 0.115,-0.013 1.655,-0.143 3.39,-1.17 3.39,-3.64 l 0,-14.692 c 0,-2.475 -1.742,-3.5 -3.398,-3.64 -0.034,-0.008 -0.07,-0.012 -0.107,-0.012"
             id="path3023"
             style="fill:#e6e6e6;fill-opacity:1;fill-rule:nonzero;stroke:none" /></g><g
           transform="translate(10.9999,12.4413)"
           id="g3025"><path
             d="m 0,0 c -0.789,0 -1.429,0.64 -1.429,1.429 0,0.788 0.64,1.428 1.429,1.428 0.789,0 1.429,-0.64 1.429,-1.428 C 1.429,0.64 0.789,0 0,0 m 0,3.571 c -1.183,0 -2.143,-0.959 -2.143,-2.142 0,-1.184 0.96,-2.143 2.143,-2.143 1.183,0 2.143,0.959 2.143,2.143 0,1.183 -0.96,2.142 -2.143,2.142 m 0,-10 c -1.972,0 -3.571,2.559 -3.571,5.715 C -3.571,2.442 -1.972,5 0,5 1.972,5 3.571,2.442 3.571,-0.714 3.571,-3.87 1.972,-6.429 0,-6.429 m 3.847,1.153 C 4.567,-4.038 5,-2.449 5,-0.714 5,3.231 2.761,6.429 0,6.429 c -2.761,0 -5,-3.198 -5,-7.143 0,-1.734 0.433,-3.324 1.153,-4.561 L -4.495,-5.919 C -4.774,-6.196 -5,-6.739 -5,-7.132 l 0,-1.421 c 0,-0.785 0.452,-0.971 1.01,-0.416 l 1.83,1.82 c 0.655,-0.449 1.385,-0.708 2.16,-0.708 0.772,0 1.5,0.257 2.153,0.704 L 3.99,-8.99 C 4.548,-9.548 5,-9.36 5,-8.571 l 0,1.428 c 0,0.395 -0.226,0.94 -0.505,1.219 l -0.648,0.648 z"
             id="path3027"
             style="fill:#e6e6e6;fill-opacity:1;fill-rule:nonzero;stroke:none" /></g></g></g></g></svg>