<?xml version="1.0" encoding="UTF-8" standalone="no"?>
<!-- Created with Inkscape (http://www.inkscape.org/) -->

<svg
   xmlns:dc="http://purl.org/dc/elements/1.1/"
   xmlns:cc="http://creativecommons.org/ns#"
   xmlns:rdf="http://www.w3.org/1999/02/22-rdf-syntax-ns#"
   xmlns:svg="http://www.w3.org/2000/svg"
   xmlns="http://www.w3.org/2000/svg"
   version="1.1"
   width="27.5"
   height="27.5"
   id="svg2"
   xml:space="preserve"><metadata
     id="metadata8"><rdf:RDF><cc:Work
         rdf:about=""><dc:format>image/svg+xml</dc:format><dc:type
           rdf:resource="http://purl.org/dc/dcmitype/StillImage" /><dc:title></dc:title></cc:Work></rdf:RDF></metadata><defs
     id="defs6"><clipPath
       id="clipPath16"><path
         d="M 0,22 22,22 22,0 0,0 0,22 z"
         id="path18" /></clipPath></defs><g
     transform="matrix(1.25,0,0,-1.25,0,27.5)"
     id="g10"><g
       id="g12"><g
         clip-path="url(#clipPath16)"
         id="g14"><g
           transform="translate(3.5762,0.9985)"
           id="g20"><path
             d="m 0,0 14.848,0 c 0.011,0.001 0.023,0.003 0.035,0.003 0.764,0.054 2.542,0.418 2.542,2.652 l 0,14.692 c 0,2.234 -1.778,2.598 -2.542,2.652 -0.014,0.001 -0.028,0.002 -0.042,0.004 l -14.835,0 C -0.007,20.001 -0.021,20 -0.035,19.999 -0.8,19.945 -2.578,19.581 -2.578,17.347 l 0,-14.692 C -2.578,0.421 -0.8,0.057 -0.035,0.003 -0.023,0.003 -0.012,0.001 0,0 m 14.917,-0.997 -14.987,0 c -0.037,0 -0.073,0.004 -0.108,0.012 -1.656,0.14 -3.397,1.166 -3.397,3.64 l 0,14.692 c 0,2.472 1.738,3.498 3.392,3.64 C -0.146,20.996 -0.108,21 -0.07,21 l 14.987,0 c 0.04,0 0.079,-0.005 0.115,-0.013 1.655,-0.143 3.39,-1.17 3.39,-3.64 l 0,-14.692 c 0,-2.475 -1.742,-3.5 -3.398,-3.64 -0.034,-0.008 -0.07,-0.012 -0.107,-0.012"
             id="path22"
             style="fill:#424142;fill-opacity:1;fill-rule:nonzero;stroke:none" /></g><g
           transform="translate(10.9999,6.0126)"
           id="g24"><path
             d="m 0,0 c -1.972,0 -3.571,2.558 -3.571,5.714 0,3.156 1.599,5.715 3.571,5.715 1.972,0 3.571,-2.559 3.571,-5.715 C 3.571,2.558 1.972,0 0,0 M 3.847,1.153 C 4.567,2.39 5,3.98 5,5.714 c 0,3.945 -2.239,7.143 -5,7.143 -2.761,0 -5,-3.198 -5,-7.143 0,-1.734 0.433,-3.323 1.153,-4.56 L -4.495,0.51 C -4.774,0.232 -5,-0.311 -5,-0.703 l 0,-1.421 c 0,-0.785 0.452,-0.972 1.01,-0.417 l 1.83,1.821 c 0.655,-0.449 1.385,-0.709 2.16,-0.709 0.772,0 1.5,0.258 2.153,0.704 L 3.99,-2.561 C 4.548,-3.119 5,-2.932 5,-2.143 l 0,1.429 C 5,-0.32 4.774,0.226 4.495,0.505 L 3.847,1.153 z M 0,6.429 c -0.789,0 -1.429,0.639 -1.429,1.428 0,0.789 0.64,1.429 1.429,1.429 0.789,0 1.429,-0.64 1.429,-1.429 C 1.429,7.068 0.789,6.429 0,6.429 M 0,10 c -1.183,0 -2.143,-0.959 -2.143,-2.143 0,-1.183 0.96,-2.143 2.143,-2.143 1.183,0 2.143,0.96 2.143,2.143 C 2.143,9.041 1.183,10 0,10"
             id="path26"
             style="fill:#424142;fill-opacity:1;fill-rule:evenodd;stroke:none" /></g></g></g></g></svg>