<?xml version="1.0" encoding="UTF-8" standalone="no"?>
<!-- Created with Inkscape (http://www.inkscape.org/) -->

<svg
   xmlns:dc="http://purl.org/dc/elements/1.1/"
   xmlns:cc="http://creativecommons.org/ns#"
   xmlns:rdf="http://www.w3.org/1999/02/22-rdf-syntax-ns#"
   xmlns:svg="http://www.w3.org/2000/svg"
   xmlns="http://www.w3.org/2000/svg"
   xmlns:sodipodi="http://sodipodi.sourceforge.net/DTD/sodipodi-0.dtd"
   xmlns:inkscape="http://www.inkscape.org/namespaces/inkscape"
   width="141.11111mm"
   height="79.304443mm"
   viewBox="0 0 500.00001 280.99999"
   id="svg2"
   version="1.1"
   inkscape:version="0.91 r13725"
   sodipodi:docname="md-logo.svg">
  <defs
     id="defs4" />
  <sodipodi:namedview
     id="base"
     pagecolor="#ffffff"
     bordercolor="#666666"
     borderopacity="1.0"
     inkscape:pageopacity="0.0"
     inkscape:pageshadow="2"
     inkscape:zoom="2.0106762"
     inkscape:cx="166.44602"
     inkscape:cy="140.49999"
     inkscape:document-units="px"
     inkscape:current-layer="layer1"
     showgrid="false"
     fit-margin-top="0"
     fit-margin-left="0"
     fit-margin-right="0"
     fit-margin-bottom="0"
     inkscape:window-width="1366"
     inkscape:window-height="744"
     inkscape:window-x="0"
     inkscape:window-y="0"
     inkscape:window-maximized="1" />
  <metadata
     id="metadata7">
    <rdf:RDF>
      <cc:Work
         rdf:about="">
        <dc:format>image/svg+xml</dc:format>
        <dc:type
           rdf:resource="http://purl.org/dc/dcmitype/StillImage" />
        <dc:title />
      </cc:Work>
    </rdf:RDF>
  </metadata>
  <g
     inkscape:label="Layer 1"
     inkscape:groupmode="layer"
     id="layer1"
     transform="translate(-124.28571,-363.29077)">
    <path
       style="fill:#000000"
       d="m 188.98839,628.84845 c -5.80643,-2.07121 -11.39912,-6.15594 -14.73657,-10.76316 -6.23864,-8.61219 -6.02974,-4.37347 -5.73467,-116.36429 0.26849,-101.90248 0.26914,-101.9315 2.41773,-106.5794 2.74714,-5.94273 9.25893,-12.45452 15.20166,-15.20166 l 4.64917,-2.14917 184,0 184,0 4.55081,2.10566 c 6.73595,3.11672 11.48195,7.77169 14.90236,14.61654 l 3.04683,6.09725 0,102.66213 c 0,117.48987 0.68054,108.48609 -8.9259,118.09252 -9.81304,9.81305 9.77874,8.93198 -197.50224,8.88201 -150.53215,-0.0363 -182.72966,-0.27854 -185.86918,-1.39843 z m 304.20839,-77.80768 c 10.06564,-11.6875 23.09092,-26.80036 28.94505,-33.58413 5.85413,-6.78378 10.79388,-12.74628 10.97721,-13.25 0.19459,-0.53465 -7.81247,-0.91587 -19.23652,-0.91587 l -19.56985,0 -0.26348,-33.25 -0.26348,-33.25 -19.75,-0.27114 -19.75,-0.27114 0,33.52114 0,33.52114 -19.5,0 c -10.725,0 -19.49616,0.3375 -19.49146,0.75 0.005,0.4125 3.71719,5.06085 8.25,10.32966 4.5328,5.26881 11.1147,12.91881 14.62644,17 25.80705,29.9918 35.42986,40.92034 36.03123,40.92034 0.38153,0 8.92922,-9.5625 18.99486,-21.25 z M 267.78571,533.04055 c 0,-20.76262 0.28106,-37.63762 0.62457,-37.5 0.67269,0.2695 19.48893,23.45226 31.19731,38.437 3.94797,5.05272 7.40312,9.19065 7.67812,9.1954 0.275,0.005 9.05,-10.73892 19.5,-23.87482 10.45,-13.1359 19.3375,-23.91133 19.75,-23.9454 0.4125,-0.0341 0.75,17.04755 0.75,37.95918 l 0,38.02114 19.75,-0.27114 19.75,-0.27114 0,-67 0,-67 -19.67599,-0.27089 -19.676,-0.2709 -3.05776,3.7709 c -1.68177,2.07399 -10.55789,13.12329 -19.7247,24.55399 -9.16682,11.43071 -16.99302,20.65571 -17.39156,20.5 -0.39854,-0.1557 -9.44754,-11.0831 -20.10889,-24.2831 l -19.38428,-24 -19.74041,-0.27114 -19.74041,-0.27114 0,67.54228 0,67.54228 19.75,-0.27114 19.75,-0.27114 0,-37.75022 z"
       id="path3347"
       inkscape:connector-curvature="0" />
    <path
       style="fill:#f9f9f9"
       d="m 104.17841,140.50001 0,-67.141595 12.85234,0 c 7.06878,0 15.92606,0.147413 19.68283,0.327585 l 6.8305,0.327584 13.72772,16.955158 c 7.55025,9.325338 16.3938,20.164418 19.65233,24.086838 l 5.92461,7.13169 1.25459,-1.16354 c 1.72892,-1.60346 12.54914,-14.69749 26.95594,-32.620625 l 12.09309,-15.04469 12.7981,0 c 7.03896,0 15.85487,0.146599 19.59091,0.325776 l 6.79279,0.325777 0,66.490042 0,66.49004 -6.79279,0.32577 c -3.73604,0.17918 -12.57635,0.32578 -19.64514,0.32578 l -12.85234,0 0,-34.74121 c 0,-33.16622 -0.18894,-40.85525 -1.00396,-40.85525 -0.42282,0 -8.63347,9.9509 -24.23425,29.37066 -12.8987,16.05624 -14.87451,18.31519 -15.40519,17.61288 -1.92713,-2.5504 -29.00007,-36.20822 -32.98664,-41.0099 -4.77462,-5.75086 -5.18245,-6.11954 -5.50147,-4.97345 -0.1895,0.68083 -0.36686,17.59691 -0.39413,37.59129 l -0.0496,36.35343 -6.7928,0.32577 c -3.73604,0.17918 -12.57635,0.32578 -19.64513,0.32578 l -12.85234,0 0,-67.14159 z"
       id="path3338"
       inkscape:connector-curvature="0"
       transform="translate(124.28571,363.29077)" />
    <path
       style="fill:#f9f9f9"
       d="m 344.85427,203.28885 c -10.79882,-12.11701 -47.36213,-54.51298 -51.10585,-59.25836 -1.16561,-1.47749 -1.94055,-2.86257 -1.72209,-3.07797 0.21847,-0.21541 8.95776,-0.5516 19.42066,-0.7471 l 19.02345,-0.35546 0,-33.31813 0,-33.318127 19.16612,0.256465 c 10.54136,0.141056 19.24873,0.34147 19.34971,0.445365 0.10099,0.103894 0.3479,14.982152 0.5487,33.062797 l 0.36508,32.87389 18.37124,0.35452 c 17.49779,0.33767 19.78608,0.47841 19.78415,1.21683 -0.002,0.93757 -57.35715,67.21462 -58.16357,67.21174 -0.1505,-4.9e-4 -2.41742,-2.40644 -5.0376,-5.34646 z"
       id="path3340"
       inkscape:connector-curvature="0"
       transform="translate(124.28571,363.29077)" />
  </g>
</svg>
